<svg width="1842" height="1032" viewBox="0 0 1842 1032" fill="none" xmlns="http://www.w3.org/2000/svg">
<g clip-path="url(#clip0_71_2)">
<rect width="1842" height="1032" fill="white"/>
<path d="M59.5 202V289" stroke="#685ABC" stroke-width="3" stroke-linecap="round"/>
<path d="M16 245.5L103 245.5" stroke="#685ABC" stroke-width="3" stroke-linecap="round"/>
<path d="M27.8633 277.136L87.1815 217.818" stroke="#685ABC" stroke-width="3" stroke-linecap="round"/>
<path d="M87.1816 273.182L27.8635 213.864" stroke="#685ABC" stroke-width="3" stroke-linecap="round"/>
<path d="M1692.5 799V886" stroke="#685ABC" stroke-width="3" stroke-linecap="round"/>
<path d="M1649 842.5L1736 842.5" stroke="#685ABC" stroke-width="3" stroke-linecap="round"/>
<path d="M1660.86 874.136L1720.18 814.818" stroke="#685ABC" stroke-width="3" stroke-linecap="round"/>
<path d="M1720.18 870.182L1660.86 810.864" stroke="#685ABC" stroke-width="3" stroke-linecap="round"/>
<path d="M1621.33 378H1649.11L1643.55 405.773V435.398L1649.11 459.468H1621.33L1626.89 435.398V405.773L1621.33 378Z" fill="#EC5447"/>
<path d="M1593 410.393L1606.89 386.341L1628.16 405.038L1653.82 419.85L1677.44 427.074L1663.55 451.127L1645.49 434.281L1619.83 419.469L1593 410.393Z" fill="#EC5447"/>
<path d="M1607.45 450.192L1593.56 426.14L1620.39 417.064L1646.05 402.252L1664.11 385.406L1678 409.458L1654.38 416.683L1628.72 431.495L1607.45 450.192Z" fill="#EC5447"/>
<path d="M675.334 597.468L703.107 597.468L697.552 569.695L697.552 540.07L703.107 516L675.334 516L680.889 540.07L680.889 569.695L675.334 597.468Z" fill="#EC5447"/>
<path d="M647 565.075L660.887 589.127L682.161 570.43L707.817 555.618L731.439 548.393L717.553 524.341L699.485 541.186L673.829 555.999L647 565.075Z" fill="#EC5447"/>
<path d="M661.447 525.275L647.561 549.327L674.39 558.404L700.046 573.216L718.114 590.061L732 566.009L708.378 558.785L682.722 543.972L661.447 525.275Z" fill="#EC5447"/>
<path d="M115.334 939H143.107L137.552 966.773V996.398L143.107 1020.47H115.334L120.889 996.398V966.773L115.334 939Z" fill="#EC5447"/>
<path d="M87 971.393L100.887 947.341L122.161 966.038L147.817 980.85L171.439 988.074L157.553 1012.13L139.485 995.281L113.829 980.469L87 971.393Z" fill="#EC5447"/>
<path d="M101.447 1011.19L87.5607 987.14L114.39 978.064L140.046 963.252L158.114 946.406L172 970.458L148.378 977.683L122.722 992.495L101.447 1011.19Z" fill="#EC5447"/>
<path d="M944.334 939H972.107L966.552 966.773V996.398L972.107 1020.47H944.334L949.889 996.398V966.773L944.334 939Z" fill="#EC5447"/>
<path d="M916 971.393L929.887 947.341L951.161 966.038L976.817 980.85L1000.44 988.074L986.553 1012.13L968.485 995.281L942.829 980.469L916 971.393Z" fill="#EC5447"/>
<path d="M930.447 1011.19L916.561 987.14L943.39 978.064L969.046 963.252L987.114 946.406L1001 970.458L977.378 977.683L951.722 992.495L930.447 1011.19Z" fill="#EC5447"/>
<path d="M333.334 -29H361.107L355.552 -1.22697V28.3976L361.107 52.4675H333.334L338.889 28.3976V-1.22697L333.334 -29Z" fill="#EC5447"/>
<path d="M305 3.39282L318.887 -20.6593L340.161 -1.96238L365.817 12.8499L389.439 20.0744L375.553 44.1266L357.485 27.2812L331.829 12.4689L305 3.39282Z" fill="#EC5447"/>
<path d="M319.447 43.1922L305.561 19.1401L332.39 10.064L358.046 -4.74828L376.114 -21.5937L390 2.45845L366.378 9.683L340.722 24.4953L319.447 43.1922Z" fill="#EC5447"/>
<path d="M1162.33 -29H1190.11L1184.55 -1.22697V28.3976L1190.11 52.4675H1162.33L1167.89 28.3976V-1.22697L1162.33 -29Z" fill="#EC5447"/>
<path d="M1134 3.39282L1147.89 -20.6593L1169.16 -1.96238L1194.82 12.8499L1218.44 20.0744L1204.55 44.1266L1186.49 27.2812L1160.83 12.4689L1134 3.39282Z" fill="#EC5447"/>
<path d="M1148.45 43.1922L1134.56 19.1401L1161.39 10.064L1187.05 -4.74828L1205.11 -21.5937L1219 2.45845L1195.38 9.683L1169.72 24.4953L1148.45 43.1922Z" fill="#EC5447"/>
<rect x="1429" y="6" width="25" height="92.5" rx="2" stroke="#F4C045" stroke-width="2"/>
<rect x="1" y="-1" width="25" height="92.5" rx="2" transform="matrix(1 -8.74228e-08 -8.74228e-08 -1 332 945)" stroke="#F4C045" stroke-width="2"/>
<mask id="path-29-inside-1_71_2" fill="white">
<path d="M305 624C305 657.689 277.689 685 244 685C210.311 685 183 657.689 183 624C183 590.311 210.311 563 244 563C277.689 563 305 590.311 305 624ZM212.739 624C212.739 641.265 226.735 655.261 244 655.261C261.265 655.261 275.261 641.265 275.261 624C275.261 606.735 261.265 592.739 244 592.739C226.735 592.739 212.739 606.735 212.739 624Z"/>
</mask>
<path d="M305 624C305 657.689 277.689 685 244 685C210.311 685 183 657.689 183 624C183 590.311 210.311 563 244 563C277.689 563 305 590.311 305 624ZM212.739 624C212.739 641.265 226.735 655.261 244 655.261C261.265 655.261 275.261 641.265 275.261 624C275.261 606.735 261.265 592.739 244 592.739C226.735 592.739 212.739 606.735 212.739 624Z" stroke="#7AD2EE" stroke-width="6" mask="url(#path-29-inside-1_71_2)"/>
<mask id="path-30-inside-2_71_2" fill="white">
<path d="M1134 624C1134 657.689 1106.69 685 1073 685C1039.31 685 1012 657.689 1012 624C1012 590.311 1039.31 563 1073 563C1106.69 563 1134 590.311 1134 624ZM1041.74 624C1041.74 641.265 1055.74 655.261 1073 655.261C1090.26 655.261 1104.26 641.265 1104.26 624C1104.26 606.735 1090.26 592.739 1073 592.739C1055.74 592.739 1041.74 606.735 1041.74 624Z"/>
</mask>
<path d="M1134 624C1134 657.689 1106.69 685 1073 685C1039.31 685 1012 657.689 1012 624C1012 590.311 1039.31 563 1073 563C1106.69 563 1134 590.311 1134 624ZM1041.74 624C1041.74 641.265 1055.74 655.261 1073 655.261C1090.26 655.261 1104.26 641.265 1104.26 624C1104.26 606.735 1090.26 592.739 1073 592.739C1055.74 592.739 1041.74 606.735 1041.74 624Z" stroke="#7AD2EE" stroke-width="6" mask="url(#path-30-inside-2_71_2)"/>
<mask id="path-31-inside-3_71_2" fill="white">
<path d="M1880 113C1880 146.689 1852.69 174 1819 174C1785.31 174 1758 146.689 1758 113C1758 79.3106 1785.31 52 1819 52C1852.69 52 1880 79.3106 1880 113ZM1787.74 113C1787.74 130.265 1801.74 144.261 1819 144.261C1836.26 144.261 1850.26 130.265 1850.26 113C1850.26 95.7351 1836.26 81.7392 1819 81.7392C1801.74 81.7392 1787.74 95.7351 1787.74 113Z"/>
</mask>
<path d="M1880 113C1880 146.689 1852.69 174 1819 174C1785.31 174 1758 146.689 1758 113C1758 79.3106 1785.31 52 1819 52C1852.69 52 1880 79.3106 1880 113ZM1787.74 113C1787.74 130.265 1801.74 144.261 1819 144.261C1836.26 144.261 1850.26 130.265 1850.26 113C1850.26 95.7351 1836.26 81.7392 1819 81.7392C1801.74 81.7392 1787.74 95.7351 1787.74 113Z" stroke="#7AD2EE" stroke-width="6" mask="url(#path-31-inside-3_71_2)"/>
</g>
<defs>
<clipPath id="clip0_71_2">
<rect width="1842" height="1032" fill="white"/>
</clipPath>
</defs>
</svg>
